<svg width="240" height="80" viewBox="0 0 240 80" fill="none" xmlns="http://www.w3.org/2000/svg">
<rect x="0.5" y="0.5" width="239" height="79" rx="15.5" fill="white"/>
<rect x="0.5" y="0.5" width="239" height="79" rx="15.5" stroke="#E4E9F1"/>
<path d="M88 39.9988C88.0002 42.9656 87.1207 45.8659 85.4725 48.3328C83.8244 50.7997 81.4818 52.7225 78.7408 53.858C75.9999 54.9934 72.9838 55.2906 70.0739 54.7118C67.1641 54.1331 64.4913 52.7045 62.3934 50.6066C60.2955 48.5087 58.8669 45.8359 58.2882 42.9261C57.7094 40.0162 58.0066 37.0001 59.142 34.2592C60.2775 31.5183 62.2003 29.1756 64.6672 27.5275C67.1341 25.8793 70.0344 24.9998 73.0012 25C76.9786 25.0016 80.7927 26.5823 83.6052 29.3948C86.4177 32.2073 87.9984 36.0214 88 39.9988Z" fill="white"/>
<path d="M72.9929 54.2493C75.8216 54.2491 78.5867 53.4101 80.9385 51.8384C83.2903 50.2667 85.1233 48.0329 86.2056 45.4195C87.288 42.806 87.571 39.9304 87.019 37.1561C86.467 34.3818 85.1048 31.8335 83.1045 29.8334C81.1043 27.8333 78.5558 26.4713 75.7815 25.9195C73.0072 25.3677 70.1315 25.6511 67.5182 26.7336C64.9049 27.8161 62.6712 29.6493 61.0997 32.0013C59.5282 34.3532 58.6895 37.1184 58.6895 39.947C58.6891 41.8254 59.0589 43.6855 59.7776 45.4209C60.4963 47.1564 61.5499 48.7332 62.8782 50.0614C64.2065 51.3896 65.7834 52.443 67.5189 53.1616C69.2545 53.8802 71.1145 54.2498 72.9929 54.2493Z" fill="#007BC7"/>
<mask id="mask0_33_124" style="mask-type:luminance" maskUnits="userSpaceOnUse" x="58" y="25" width="30" height="30">
<path d="M73.001 54.2409C75.8268 54.2363 78.5879 53.3943 80.9353 51.8211C83.2826 50.2479 85.111 48.0142 86.1893 45.4022C87.2676 42.7903 87.5475 39.9173 86.9935 37.1463C86.4395 34.3754 85.0766 31.8308 83.077 29.8342C81.0773 27.8375 78.5307 26.4785 75.7589 25.9287C72.9871 25.3789 70.1145 25.6631 67.5042 26.7454C64.8939 27.8276 62.6629 29.6594 61.0933 32.0091C59.5237 34.3589 58.6858 37.1212 58.6855 39.947C58.6862 41.8257 59.057 43.6859 59.777 45.4213C60.4969 47.1566 61.5517 48.7331 62.8812 50.0605C64.2107 51.388 65.7887 52.4404 67.5251 53.1577C69.2615 53.875 71.1223 54.2431 73.001 54.2409Z" fill="white"/>
</mask>
<g mask="url(#mask0_33_124)">
<path d="M73.048 46.8474C79.3372 46.8474 84.7278 48.5965 87.0327 51.0867C87.8235 49.259 88.2293 47.2881 88.2249 45.2967C88.2249 37.0924 81.4292 30.4483 73.048 30.4483C64.6669 30.4483 57.876 37.0924 57.876 45.3015C57.8715 47.2925 58.2812 49.2626 59.079 51.0867C61.3803 48.5965 66.7709 46.8474 73.0504 46.8474H73.048Z" fill="#007BC7"/>
<path d="M73.0481 30.5758C64.7018 30.5758 57.923 37.1802 57.9146 45.3184L57.923 45.8525C57.9863 47.649 58.3866 49.4176 59.1031 51.0662C61.4032 48.6013 66.7805 46.8654 73.0481 46.8654C79.3156 46.8654 84.6893 48.6013 86.9894 51.0662C87.7124 49.4193 88.1157 47.65 88.178 45.8525L88.1864 45.3136C88.178 37.1802 81.3992 30.5758 73.0481 30.5758Z" fill="#007DC8"/>
<path d="M73.0445 30.6997C64.7271 30.6997 57.9651 37.2704 57.9519 45.3304V45.8693C58.0119 47.6582 58.4141 49.4191 59.1368 51.0566C61.4225 48.6049 66.7926 46.881 73.0397 46.881C79.2868 46.881 84.6497 48.6049 86.9462 51.0566C87.672 49.419 88.0759 47.6571 88.136 45.8669L88.1444 45.3304C88.1179 37.2704 81.3644 30.7033 73.0397 30.7033L73.0445 30.6997Z" fill="#007ECA"/>
<path d="M73.0444 30.8273C64.7522 30.8273 58.0071 37.351 57.9902 45.3437L57.9987 45.873C58.0585 47.6516 58.4561 49.4026 59.1704 51.0326C61.456 48.6013 66.8057 46.8943 73.0444 46.8943C79.283 46.8943 84.6243 48.6013 86.9172 51.0326C87.6343 49.4034 88.0332 47.652 88.0925 45.873L88.1009 45.3377C88.0708 37.3462 81.3389 30.8273 73.0396 30.8273H73.0444Z" fill="#0080CB"/>
<path d="M73.0446 30.9547C64.7825 30.9547 58.0674 37.4376 58.0205 45.3568L58.0337 45.8885C58.0892 47.6573 58.4884 49.3983 59.2091 51.0145C61.4947 48.6085 66.8227 46.9135 73.0434 46.9135C79.264 46.9135 84.592 48.5977 86.8777 51.0145C87.6003 49.3974 88.0012 47.6552 88.0578 45.8849V45.3508C88.0253 37.4316 81.3103 30.9547 73.0446 30.9547Z" fill="#0082CC"/>
<path d="M73.0397 31.0787C64.8041 31.0787 58.1095 37.5206 58.0674 45.3689V45.8958C58.1218 47.656 58.5182 49.3888 59.2343 50.9977C61.5199 48.6073 66.8359 46.9244 73.0349 46.9244C79.2339 46.9244 84.5559 48.6085 86.8319 50.9977C87.5554 49.3897 87.9575 47.6557 88.0157 45.8934V45.3689C87.9639 37.5206 81.2789 31.0787 73.0301 31.0787H73.0397Z" fill="#0084CD"/>
<path d="M73.0397 31.2086C64.8257 31.2086 58.1527 37.6084 58.0974 45.3821V45.9102C58.1517 47.663 58.5528 49.3876 59.2775 50.9844C61.5488 48.6133 66.8563 46.952 73.0397 46.952C79.223 46.952 84.5354 48.6073 86.797 50.9844C87.5226 49.3891 87.921 47.6645 87.9687 45.9126V45.3845C87.917 37.6096 81.232 31.2146 73.03 31.2146L73.0397 31.2086Z" fill="#0086CF"/>
<path d="M73.0397 31.3361C64.8462 31.3361 58.2046 37.6915 58.136 45.399V45.9187C58.1892 47.6598 58.5875 49.3731 59.3077 50.9592C61.5669 48.6073 66.866 46.9593 73.0361 46.9593C79.2062 46.9593 84.4982 48.6073 86.7598 50.9592C87.4857 49.375 87.8846 47.6606 87.9327 45.9187V45.393C87.8725 37.6939 81.2176 31.3349 73.0361 31.3361H73.0397Z" fill="#0088D0"/>
<path d="M73.0362 31.4624C64.88 31.4624 58.2503 37.7793 58.1746 45.417V45.9355C58.221 47.6667 58.6184 49.3704 59.3427 50.9435C61.5958 48.6109 66.8757 46.9797 73.0326 46.9797C79.1895 46.9797 84.4609 48.6109 86.7262 50.9435C87.4465 49.3681 87.8417 47.6636 87.8882 45.9319L87.8979 45.4122C87.8161 37.7769 81.1948 31.4672 73.0362 31.4672V31.4624Z" fill="#008AD1"/>
<path d="M73.036 31.5851C64.9099 31.5851 58.2971 37.8622 58.2117 45.4254V45.9403C58.2547 47.6634 58.6536 49.359 59.3834 50.9206C61.6197 48.6133 66.8912 46.9905 73.0312 46.9905C79.1712 46.9905 84.4331 48.6133 86.6827 50.9206C87.4094 49.358 87.8082 47.663 87.8544 45.9403V45.4206C87.769 37.8622 81.1598 31.5863 73.0312 31.5863L73.036 31.5851Z" fill="#008CD3"/>
<path d="M73.0361 31.7175C64.9316 31.7175 58.3405 37.9477 58.2502 45.4375V45.9536C58.2941 47.6655 58.6884 49.3502 59.4087 50.9038C61.6547 48.6182 66.9081 47.005 73.0313 47.005C79.1545 47.005 84.3983 48.6134 86.6479 50.9038C87.3678 49.3482 87.7636 47.6623 87.8111 45.9488V45.4339C87.7137 37.9477 81.1262 31.7199 73.0313 31.7199L73.0361 31.7175Z" fill="#008ED4"/>
<path d="M73.0313 31.8462C64.9569 31.8462 58.391 38.0319 58.2864 45.4507V45.962C58.3306 47.6686 58.7266 49.3477 59.4497 50.8942C61.6824 48.6206 66.931 47.0254 73.0325 47.0254C79.1341 47.0254 84.3755 48.6206 86.6154 50.8942C87.3397 49.3481 87.7358 47.6688 87.7787 45.962V45.4507C87.6728 38.0367 81.1022 31.857 73.0325 31.857L73.0313 31.8462Z" fill="#0090D5"/>
<path d="M73.023 31.9773C64.9823 31.9773 58.4345 38.1197 58.3274 45.4675V45.9704C58.363 47.6656 58.7566 49.3341 59.4823 50.8665C61.715 48.6158 66.9407 47.0398 73.023 47.0398C79.1053 47.0398 84.3443 48.6158 86.577 50.8665C87.2983 49.3326 87.6913 47.665 87.7307 45.9704V45.4591C87.6164 38.1125 81.0806 31.9773 73.023 31.9773Z" fill="#0092D7"/>
<path d="M73.0228 32.0976C65.0085 32.0976 58.4763 38.2051 58.3621 45.482V45.9848C58.4 47.6692 58.7931 49.3265 59.5157 50.8485C61.74 48.6206 66.9514 47.0519 73.0228 47.0519C79.0943 47.0519 84.3092 48.6158 86.5335 50.8485C87.2599 49.3276 87.6551 47.6698 87.6932 45.9848V45.476C87.5645 38.2003 81.0455 32.0976 73.0228 32.0976Z" fill="#0094D8"/>
<path d="M73.0229 32.2179C65.0387 32.2179 58.5269 38.2857 58.3994 45.4952V45.9921C58.4334 47.6705 58.826 49.3222 59.5507 50.8365C61.7702 48.623 66.9731 47.0723 73.0241 47.0723C79.0751 47.0723 84.2816 48.623 86.4975 50.8365C87.2189 49.3209 87.6124 47.6701 87.6524 45.9921V45.488C87.5188 38.2857 81.0227 32.2179 73.0229 32.2179Z" fill="#0097D9"/>
<path d="M73.0229 32.349C65.0592 32.349 58.5739 38.3735 58.4343 45.5096V46.0041C58.4725 47.6719 58.8663 49.3125 59.5892 50.816C61.7955 48.6242 66.9851 47.0867 73.0229 47.0867C79.0607 47.0867 84.2419 48.623 86.4614 50.816C87.186 49.3133 87.5783 47.672 87.6115 46.0041V45.5012C87.4623 38.3711 80.9867 32.349 73.0229 32.349Z" fill="#0099DB"/>
<path d="M73.018 32.4766C65.0855 32.4766 58.6255 38.4602 58.4763 45.5229V46.0149C58.5032 47.6735 58.8929 49.3061 59.6179 50.798C61.8206 48.623 66.9934 47.1012 73.018 47.1012C79.0425 47.1012 84.2153 48.623 86.4228 50.798C87.1463 49.3031 87.5374 47.6693 87.5693 46.0089V45.5145C87.4153 38.4518 80.9613 32.4766 73.0132 32.4766H73.018Z" fill="#009BDC"/>
<path d="M73.0179 32.6088C65.1143 32.6088 58.6688 38.5431 58.5063 45.5349V46.0161C58.5378 47.6665 58.9291 49.2902 59.6528 50.7739C61.8506 48.6217 67.0102 47.112 73.0179 47.112C79.0256 47.112 84.1816 48.6217 86.3843 50.7739C87.1058 49.2894 87.4969 47.6662 87.5307 46.0161V45.5229C87.3599 38.5407 80.9312 32.604 73.0179 32.6088Z" fill="#009DDD"/>
<path d="M73.0181 32.728C65.1313 32.728 58.7194 38.631 58.5486 45.553V46.0342C58.5741 47.6735 58.961 49.2869 59.6818 50.7595C61.8808 48.6266 67.02 47.1337 73.0181 47.1337C79.0161 47.1337 84.1565 48.6266 86.3459 50.7595C87.0731 49.2888 87.4635 47.6746 87.4888 46.0342V45.5445C87.3095 38.625 80.9024 32.728 73.0181 32.728Z" fill="#009FDF"/>
<path d="M73.0097 32.8555C65.1615 32.8555 58.7676 38.714 58.5872 45.5638V46.045C58.6133 47.6738 59.0016 49.2765 59.724 50.7366C61.9146 48.6266 67.0489 47.1397 73.0133 47.1397C78.9777 47.1397 84.1265 48.6266 86.3111 50.7366C87.0354 49.2769 87.4258 47.6743 87.4539 46.045L87.4455 45.5542C87.2627 38.714 80.8712 32.8555 73.0097 32.8555Z" fill="#00A2E0"/>
<path d="M73.0095 32.9878C65.1901 32.9878 58.8143 38.7994 58.6218 45.5806V46.0618C58.6446 47.6818 59.0319 49.2759 59.755 50.7258C61.936 48.635 67.0668 47.1698 73.0143 47.1698C78.9799 47.1698 84.0926 48.635 86.2832 50.7258C87.0021 49.2712 87.3876 47.6746 87.4116 46.0522V45.571C87.2107 38.7994 80.8409 32.9806 73.0095 32.9878Z" fill="#00A4E1"/>
<path d="M73.0096 33.1069C65.213 33.1069 58.8637 38.8872 58.6592 45.5914V46.0654C58.6793 47.6757 59.0656 49.2604 59.7888 50.6993C61.9614 48.6326 67.0668 47.1818 73.0096 47.1818C78.9523 47.1818 84.0578 48.6326 86.2352 50.6993C86.9622 49.2618 87.3487 47.6762 87.3648 46.0654V45.5842C87.1579 38.88 80.8157 33.1069 73.0096 33.1069Z" fill="#00A6E3"/>
<path d="M73.0095 33.2392C65.2382 33.2392 58.9021 38.9738 58.694 45.6059L58.6855 46.081C58.7063 47.6809 59.0927 49.2548 59.8151 50.6825C61.9925 48.6374 67.08 47.1938 73.0059 47.1938C78.9318 47.1938 84.03 48.6326 86.1954 50.6825C86.9198 49.2538 87.3067 47.6779 87.3262 46.0762V45.595C87.1084 38.9678 80.7819 33.2344 73.0095 33.2392Z" fill="#00A9E4"/>
<path d="M73.0059 33.3668C65.2635 33.3668 58.9454 39.0593 58.7361 45.6167V46.0871C58.7487 47.6805 59.1339 49.2489 59.8609 50.6669C62.0166 48.6374 67.0992 47.2119 73.0095 47.2119C78.9197 47.2119 84.0023 48.6374 86.1581 50.6669C86.8867 49.2497 87.2705 47.6806 87.2781 46.0871V45.6059C87.0615 39.0545 80.7519 33.3668 73.0059 33.3668Z" fill="#00ABE5"/>
<path d="M73.0059 33.4906C65.2851 33.4906 59.0007 39.1446 58.7698 45.6335V46.1027C58.7835 47.6852 59.1688 49.2424 59.8946 50.6488C62.0503 48.6374 67.1125 47.2311 73.0071 47.2311C78.9017 47.2311 83.9651 48.6374 86.1304 50.6488C86.8461 49.2392 87.2265 47.6834 87.242 46.1027V45.6215C87.0014 39.141 80.7278 33.4918 73.0071 33.4918L73.0059 33.4906Z" fill="#00ADE7"/>
<path d="M73.0059 33.6182C65.3152 33.6182 59.0393 39.2277 58.8047 45.648V46.1172C58.8152 47.6915 59.1991 49.2408 59.9247 50.638C62.0768 48.6458 67.1257 47.2504 73.0059 47.2504C78.8861 47.2504 83.9302 48.6458 86.0823 50.638C86.8101 49.2416 87.1941 47.6918 87.2023 46.1172V45.6444C86.9545 39.2313 80.6954 33.6242 73.0071 33.6242L73.0059 33.6182Z" fill="#00B0E8"/>
<path d="M73.0062 33.7433C65.3407 33.7433 59.0949 39.3155 58.8519 45.6588L58.8386 46.1207C58.8534 47.6841 59.2358 49.2221 59.955 50.6103C62.1023 48.6398 67.1344 47.2612 73.0062 47.2612C78.8599 47.2612 83.8919 48.6398 86.0525 50.6103C86.7719 49.2224 87.1527 47.684 87.1641 46.1207L87.158 45.6504C86.9174 39.3107 80.674 33.7408 73.0086 33.7408L73.0062 33.7433Z" fill="#00B2EA"/>
<path d="M73.0012 33.8696C65.3707 33.8696 59.1417 39.4033 58.8818 45.6732V46.1328C58.8888 47.6879 59.2718 49.2183 59.9982 50.5934C62.1419 48.641 67.1608 47.278 73.0061 47.278C78.8514 47.278 83.8678 48.641 86.0103 50.5934C86.7359 49.2179 87.1201 47.688 87.1303 46.1328L87.1183 45.6672C86.862 39.3973 80.6366 33.8696 73.0012 33.8696Z" fill="#0FB5EB"/>
<path d="M73.0011 33.9971C65.3838 33.9971 59.1837 39.4827 58.919 45.6913L58.907 46.146C58.9188 47.6933 59.303 49.2151 60.027 50.5826C62.1574 48.647 67.1727 47.2997 73.0011 47.2997C78.8296 47.2997 83.8364 48.647 85.9669 50.5826C86.6955 49.217 87.0788 47.6938 87.0833 46.146V45.6841C86.8102 39.4827 80.6148 34.0031 73.0084 34.0031L73.0011 33.9971Z" fill="#1DB7EC"/>
<path d="M73.0012 34.1234C65.4128 34.1234 59.2307 39.5681 58.9576 45.7021L58.9456 46.1532C58.9523 47.6897 59.3356 49.201 60.0619 50.555C62.1924 48.641 67.1812 47.3069 73.0012 47.3069C78.8212 47.3069 83.8064 48.6398 85.9369 50.555C86.6541 49.1982 87.0318 47.6879 87.0376 46.1532V45.6913C86.7549 39.5645 80.5776 34.1234 73.0012 34.1234Z" fill="#27BAEE"/>
<path d="M72.9929 34.2485C65.4466 34.2485 59.2789 39.6559 59.001 45.7106L58.9878 46.1617C58.995 47.6895 59.3736 49.1927 60.0909 50.5417C62.2178 48.6458 67.1982 47.3226 72.9929 47.3226C78.7877 47.3226 83.7729 48.6458 85.8949 50.5417C86.6155 49.1937 86.9958 47.6901 87.0029 46.1617L86.9896 45.7045C86.6997 39.6511 80.5513 34.2485 72.9929 34.2485Z" fill="#2FBCEF"/>
<path d="M72.9845 47.3382C78.7757 47.3382 83.7476 48.6458 85.8564 50.5249C86.5773 49.1872 86.9562 47.692 86.9596 46.1725C86.9596 40.0096 80.7137 34.3832 72.9845 34.3832C65.2854 34.3832 59.0215 40.012 59.0215 46.1725C59.0247 47.6929 59.4041 49.189 60.1258 50.5273C62.2515 48.6482 67.203 47.3406 72.9845 47.3406V47.3382Z" fill="#37BEF0"/>
<path d="M72.9843 47.3755C78.7586 47.3755 83.7305 48.6675 85.8346 50.5333C86.562 49.2108 86.9447 47.7264 86.9473 46.217C86.9473 40.0938 80.7002 34.4963 72.9843 34.4963C65.2936 34.4963 59.0393 40.0938 59.0393 46.2218C59.0424 47.7299 59.4215 49.2135 60.1424 50.5381C62.2561 48.6723 67.2232 47.3755 72.9843 47.3755Z" fill="#45C0F0"/>
<path d="M72.9843 47.414C78.7587 47.414 83.7089 48.7036 85.8226 50.555C86.5428 49.2383 86.922 47.7623 86.9257 46.2615C86.9257 40.178 80.6882 34.613 72.9843 34.613C65.3021 34.613 59.0598 40.178 59.0598 46.2615C59.064 47.7618 59.4419 49.2374 60.1593 50.555C62.2778 48.7036 67.2281 47.414 72.9843 47.414Z" fill="#50C2F1"/>
<path d="M72.9844 47.4489C78.7491 47.4489 83.691 48.7313 85.8058 50.5682C86.5281 49.2642 86.9104 47.7992 86.9174 46.3084C86.9174 40.2611 80.6883 34.7297 72.9892 34.7297C65.3202 34.7297 59.0815 40.2635 59.0815 46.3084C59.0885 47.7994 59.4681 49.265 60.1859 50.5718C62.2947 48.7313 67.2414 47.4441 72.9892 47.4441L72.9844 47.4489Z" fill="#5BC4F1"/>
<path d="M72.9844 47.4825C78.7455 47.4825 83.6789 48.7589 85.7841 50.585C86.5027 49.2894 86.8822 47.8332 86.8872 46.3517C86.8872 40.3476 80.6714 34.8428 72.9844 34.8428C65.319 34.8428 59.0947 40.3476 59.0947 46.3517C59.1014 47.8324 59.479 49.2878 60.1931 50.585C62.2983 48.7589 67.2413 47.4825 72.9844 47.4825Z" fill="#64C7F2"/>
<path d="M72.9843 47.5234C78.7285 47.5234 83.6704 48.789 85.7708 50.5995C86.4849 49.3134 86.8615 47.8673 86.8655 46.3963C86.8655 40.427 80.6617 34.9607 72.9843 34.9607C65.3369 34.9607 59.1199 40.427 59.1199 46.3963C59.1185 47.8688 59.491 49.3175 60.2026 50.6067C62.3162 48.7938 67.246 47.5283 72.9807 47.5283L72.9843 47.5234Z" fill="#6DC9F3"/>
<path d="M72.9844 47.5547C78.7286 47.5547 83.6572 48.8142 85.754 50.6163C86.4696 49.3397 86.848 47.9018 86.8536 46.4383C86.8536 40.5124 80.645 35.0798 72.9844 35.0798C65.3238 35.0798 59.1284 40.5185 59.1284 46.4383C59.1367 47.9002 59.5114 49.3367 60.2183 50.6163C62.3272 48.8118 67.257 47.5547 72.9796 47.5547H72.9844Z" fill="#75CBF3"/>
<path d="M72.9844 47.5896C78.7191 47.5896 83.6405 48.8443 85.7361 50.632C86.447 49.3639 86.8226 47.9354 86.8272 46.4817C86.8272 40.5991 80.6354 35.1941 72.9832 35.1941C65.3311 35.1941 59.1489 40.5991 59.1489 46.4817C59.1541 47.9358 59.5309 49.3645 60.2436 50.632C62.3404 48.8443 67.2618 47.5956 72.9796 47.5896H72.9844Z" fill="#7DCDF4"/>
<path d="M72.9843 47.6317C78.7153 47.6317 83.6235 48.872 85.7154 50.6392C86.429 49.3831 86.8049 47.9636 86.8065 46.519C86.8065 40.6761 80.6196 35.3047 72.9843 35.3047C65.3489 35.3047 59.1704 40.6809 59.1704 46.5238C59.175 47.9695 59.5507 49.3899 60.2615 50.6488C62.3583 48.872 67.2701 47.6317 72.9843 47.6317Z" fill="#84D0F4"/>
<path d="M72.9844 47.6654C78.7022 47.6654 83.6116 48.8997 85.6987 50.6633C86.4093 49.4167 86.7863 48.0079 86.7934 46.5731C86.7934 40.7675 80.6161 35.4263 72.9844 35.4263C65.3743 35.4263 59.197 40.7675 59.197 46.5683C59.1992 48.0022 59.5722 49.4112 60.2797 50.6584C62.3681 48.8949 67.2811 47.6606 72.9856 47.6606L72.9844 47.6654Z" fill="#8BD2F5"/>
<path d="M72.9843 47.7014C78.6985 47.7014 83.5983 48.9273 85.677 50.6776C86.3925 49.4436 86.7732 48.044 86.7814 46.6176C86.7814 40.8529 80.6064 35.5501 72.9843 35.5501C65.3839 35.5441 59.209 40.8529 59.209 46.6176C59.2147 48.0426 59.5907 49.4417 60.3001 50.6776C62.3921 48.9273 67.2918 47.7087 72.9843 47.7014Z" fill="#92D4F5"/>
<path d="M72.9845 47.7364C78.6939 47.7364 83.5708 48.9574 85.6688 50.6909C86.3721 49.4642 86.7452 48.0761 86.7515 46.6621C86.7515 40.9335 80.5862 35.6656 72.9809 35.6656C65.4021 35.6656 59.2224 40.9335 59.2224 46.6621C59.23 48.0793 59.606 49.4701 60.3135 50.6981C62.4055 48.9574 67.3089 47.7424 72.9845 47.7364Z" fill="#99D6F6"/>
<path d="M72.9844 47.7773C78.6817 47.7773 83.5634 48.9803 85.647 50.7126C86.3514 49.4934 86.7247 48.1111 86.7297 46.703C86.7297 41.0237 80.586 35.7739 72.9844 35.7739C65.4056 35.7739 59.2439 41.0237 59.2439 46.703C59.2482 48.1118 59.6233 49.4947 60.3314 50.7126C62.4198 48.9851 67.3087 47.7773 72.982 47.7773H72.9844Z" fill="#9FD9F7"/>
<path d="M72.9844 47.811C78.6733 47.811 83.5466 49.0139 85.6302 50.7294C86.3366 49.5202 86.7101 48.1455 86.7129 46.7451C86.7129 41.1043 80.5681 35.893 72.9796 35.893C65.3912 35.893 59.2656 41.1043 59.2656 46.7451C59.2688 48.1454 59.6424 49.52 60.3483 50.7294C62.4283 49.0127 67.3016 47.8134 72.9796 47.811H72.9844Z" fill="#A5DBF7"/>
<path d="M72.9843 47.8494C78.6599 47.8494 83.5344 49.0404 85.6156 50.7426C86.3184 49.5438 86.6919 48.1805 86.6983 46.7908C86.6983 41.1897 80.5631 36.0121 72.9843 36.0121C65.4259 36.0121 59.2859 41.1849 59.2859 46.7908C59.2953 48.18 59.6686 49.5426 60.3686 50.7426C62.457 49.0404 67.3218 47.8494 72.9891 47.8494H72.9843Z" fill="#ABDDF8"/>
<path d="M72.9845 47.8832C78.6553 47.8832 83.5166 49.0681 85.6014 50.7595C86.3008 49.5684 86.6742 48.2142 86.684 46.833C86.684 41.2752 80.5488 36.1264 72.9857 36.1264C65.4225 36.1264 59.3005 41.2776 59.3005 46.833C59.3082 48.2145 59.6818 49.5693 60.3832 50.7595C62.462 49.0681 67.328 47.8832 72.9821 47.8832H72.9845Z" fill="#B1DFF8"/>
<path d="M72.9844 47.9216C78.6469 47.9216 83.4997 49.0982 85.5832 50.7727C86.2821 49.5932 86.653 48.2484 86.6575 46.8774C86.6575 41.3606 80.5415 36.2455 72.9844 36.2455C65.4465 36.2455 59.3293 41.3582 59.3293 46.8774C59.3372 48.2478 59.7074 49.5917 60.4024 50.7727C62.4776 49.0982 67.3388 47.9216 72.9844 47.9216Z" fill="#B7E1F9"/>
<path d="M72.9928 47.9601C78.6468 47.9601 83.4912 49.1234 85.5579 50.7895C86.2596 49.6218 86.6337 48.2866 86.6406 46.9243C86.6406 41.4411 80.5307 36.3621 72.9928 36.3621C65.4549 36.3621 59.3413 41.4411 59.3413 46.9243C59.3513 48.2862 59.7251 49.6206 60.424 50.7895C62.4943 49.1234 67.3484 47.9601 72.9976 47.9601H72.9928Z" fill="#BCE4F9"/>
<path d="M72.9929 47.9938C78.6349 47.9938 83.4829 49.1487 85.5461 50.8064C86.2438 49.6471 86.6177 48.3219 86.6287 46.9689C86.6287 41.5242 80.5188 36.4764 72.9977 36.4764C65.4767 36.4764 59.3691 41.5242 59.3691 46.9653C59.3731 48.3181 59.7412 49.6449 60.435 50.8064C62.5137 49.1487 67.3545 47.9986 72.9953 47.9938H72.9929Z" fill="#C1E6FA"/>
<path d="M72.9927 48.0323C78.6215 48.0323 83.4587 49.1787 85.5278 50.8184C86.2228 49.6707 86.594 48.3563 86.6021 47.0146C86.6021 41.612 80.509 36.5967 72.9927 36.5967C65.4765 36.5967 59.3882 41.6072 59.3882 47.0146C59.3944 48.355 59.7618 49.6691 60.4516 50.8184C62.5268 49.1787 67.3664 48.0323 72.9951 48.0323H72.9927Z" fill="#C7E8FA"/>
<path d="M72.9929 48.0684C78.6168 48.0684 83.4444 49.2076 85.5111 50.8352C86.2058 49.6953 86.5771 48.3879 86.5854 47.0531C86.5854 41.689 80.5055 36.7074 72.9917 36.7074C65.4778 36.7074 59.3979 41.689 59.3979 47.0531C59.4107 48.3884 59.7848 49.6954 60.4806 50.8352C62.5425 49.204 67.3785 48.0684 73.0025 48.0684H72.9929Z" fill="#CCEAFB"/>
<path d="M72.9928 48.0973C78.6168 48.0973 83.4287 49.2389 85.4858 50.8533C86.1842 49.7257 86.5588 48.4276 86.5685 47.1012C86.5685 41.778 80.4922 36.8265 72.9977 36.8265C65.5031 36.8265 59.4136 41.778 59.4136 47.1012C59.4222 48.4259 59.792 49.7231 60.483 50.8533C62.5498 49.2389 67.3773 48.0997 72.9941 48.0997L72.9928 48.0973Z" fill="#D1ECFB"/>
<path d="M72.9927 48.1418C78.6047 48.1418 83.419 49.2641 85.4725 50.8665C86.1624 49.7466 86.5339 48.4598 86.5468 47.1445C86.5468 41.8598 80.4753 36.9396 72.9927 36.9396C65.5102 36.9396 59.4399 41.8622 59.4399 47.1445C59.4483 48.4577 59.8147 49.7437 60.4998 50.8641C62.5581 49.2617 67.3856 48.1393 72.9927 48.1393V48.1418Z" fill="#D6EEFB"/>
<path d="M72.9928 48.1779C78.5914 48.1779 83.4058 49.293 85.4557 50.8834C86.147 49.7743 86.5188 48.4959 86.5299 47.189C86.5299 41.9464 80.4669 37.0563 72.9928 37.0563C65.5186 37.0563 59.4568 41.9464 59.4568 47.189C59.4669 48.4954 59.8351 49.7741 60.5214 50.8858C62.5797 49.293 67.3941 48.1779 72.9928 48.1779Z" fill="#DBF0FC"/>
<path d="M72.9928 48.2175C78.5831 48.2175 83.389 49.3255 85.4353 50.9062C86.1302 49.8081 86.5021 48.5366 86.5083 47.2371C86.5083 42.0354 80.4537 37.1802 72.9928 37.1802C65.5319 37.1802 59.4773 42.033 59.4773 47.2311C59.4861 48.5297 59.8533 49.8006 60.5383 50.9038C62.5834 49.3195 67.4025 48.2115 72.9928 48.2115V48.2175Z" fill="#E0F2FC"/>
<path d="M72.9928 48.25C78.5795 48.25 83.3686 49.3448 85.4257 50.9171C86.1084 49.8252 86.4756 48.5657 86.4867 47.278C86.4867 42.1136 80.4453 37.2933 72.9928 37.2933C65.5404 37.2933 59.4954 42.1136 59.4954 47.278C59.5041 48.5669 59.8697 49.8281 60.5516 50.9219C62.6051 49.3496 67.4026 48.2549 72.9928 48.2549V48.25Z" fill="#E5F4FD"/>
<path d="M72.9927 48.2861C78.571 48.2861 83.3504 49.3748 85.4087 50.9327C86.0894 49.851 86.4567 48.6017 86.4698 47.3237C86.4698 42.2038 80.4368 37.4088 72.9964 37.4088C65.5559 37.4088 59.5229 42.2038 59.5229 47.3213C59.5308 48.5989 59.8953 49.8488 60.5756 50.9303C62.6291 49.3748 67.4181 48.2837 73 48.2837L72.9927 48.2861Z" fill="#E9F6FD"/>
<path d="M72.9929 48.3222C78.5663 48.3222 83.347 49.4049 85.3836 50.9447C86.0699 49.8746 86.4394 48.6322 86.4495 47.361C86.4495 42.2808 80.4165 37.523 72.9893 37.523C65.5621 37.523 59.5327 42.2868 59.5327 47.361C59.538 48.6325 59.9047 49.8762 60.5901 50.9471C62.6436 49.4025 67.4243 48.3222 72.9929 48.3222Z" fill="#EEF8FE"/>
<path d="M72.9927 48.3607C78.5529 48.3607 83.3251 49.4326 85.3702 50.964C86.0552 49.9022 86.4248 48.6678 86.436 47.4043C86.436 42.3674 80.4211 37.6445 72.9975 37.6445C65.5739 37.6445 59.5505 42.3698 59.5505 47.4043C59.5606 48.6666 59.9267 49.9005 60.6068 50.964C62.6518 49.4326 67.4325 48.3607 72.9975 48.3607H72.9927Z" fill="#F2FAFE"/>
<path d="M72.9928 48.3944C78.553 48.3944 83.3132 49.4603 85.3499 50.9784C86.033 49.9292 86.4023 48.7068 86.4145 47.4549C86.4145 42.4553 80.3996 37.7601 72.9928 37.7601C65.5861 37.7601 59.5627 42.4517 59.5627 47.4549C59.5745 48.7083 59.9425 49.9324 60.6238 50.9845C62.6688 49.4639 67.4459 48.3981 72.9928 48.3981V48.3944Z" fill="#F7FCFE"/>
<path d="M72.9927 48.4305C78.5493 48.4305 83.2999 49.4855 85.3366 50.9977C86.0102 49.915 86.3976 48.7373 86.3976 47.4982C86.3976 42.5335 80.3899 37.8743 72.9927 37.8743C65.5956 37.8743 59.5891 42.5335 59.5891 47.4958C59.6015 48.739 59.9661 49.9532 60.6405 50.9977C62.6772 49.4855 67.4458 48.4353 72.9927 48.4305Z" fill="#FBFDFF"/>
<path d="M72.9928 48.4654C78.5265 48.4654 83.2831 49.5144 85.3198 51.0109C85.9969 49.9792 86.3623 48.7743 86.3724 47.5403C86.3724 42.6165 80.3815 37.9922 72.9928 37.9922C65.6041 37.9922 59.6096 42.6213 59.6096 47.5403C59.6196 48.7736 59.9832 49.9781 60.6574 51.0109C62.6953 49.5144 67.4579 48.469 72.9928 48.4654Z" fill="white"/>
</g>
<path d="M72.9843 43.5548C68.1447 43.5548 63.6491 44.374 59.9331 45.7659C61.0575 48.2915 62.8899 50.4371 65.2084 51.9428C67.527 53.4486 70.2323 54.25 72.9969 54.25C75.7615 54.25 78.4668 53.4486 80.7854 51.9428C83.104 50.4371 84.9363 48.2915 86.0607 45.7659C82.3459 44.374 77.8371 43.5548 72.9843 43.5548Z" fill="#007BC7"/>
<path d="M138.667 44.0577H141.762C141.902 44.0613 142.039 44.1019 142.159 44.1754C142.279 44.2489 142.377 44.3527 142.444 44.4763C142.596 44.7169 142.571 45.5229 142.571 45.5229V51.0915C142.613 51.6184 142.87 52.5279 144.787 52.6049H158.976V50.6356H146.874C146.116 50.6873 146.032 50.3084 146.009 49.8476V45.1861C146.009 44.7217 145.949 44.3043 145.553 44.0577H160.526V42.1052H138.667V44.0577Z" fill="#0067AC"/>
<path d="M150.121 40.071C154.424 40.071 157.918 37.7192 157.918 34.2365C157.918 30.7539 154.43 28.3984 150.121 28.3984C145.812 28.3984 142.319 30.7491 142.319 34.2365C142.319 37.724 145.808 40.071 150.121 40.071ZM150.121 30.3906C152.473 30.3906 154.395 31.8835 154.395 34.2401C154.395 36.5968 152.47 38.0897 150.121 38.0897C147.771 38.0897 145.843 36.5944 145.843 34.2401C145.843 31.8859 147.756 30.3906 150.121 30.3906Z" fill="#0067AC"/>
<path d="M92.0613 44.8492H101.366V53.2424H104.945V44.8492H114.252V42.8126H92.0613V44.8492Z" fill="#0067AC"/>
<path d="M103.158 40.6255C107.679 40.6255 111.346 38.1558 111.346 34.5C111.346 30.8441 107.676 28.3683 103.158 28.3683C98.6393 28.3683 94.9534 30.8357 94.9534 34.5036C94.9534 38.1715 98.6261 40.6255 103.158 40.6255ZM103.158 30.47C105.633 30.47 107.64 32.0338 107.64 34.5024C107.64 36.9709 105.631 38.5408 103.158 38.5408C100.684 38.5408 98.6598 36.9757 98.6598 34.5036C98.6598 32.0314 100.676 30.47 103.158 30.47Z" fill="#0067AC"/>
<path d="M166.725 29.5894V30.2991H161.818V32.242H164.156C162.924 33.149 162.15 34.4891 162.15 36.1216C162.15 39.1699 164.867 41.2258 168.216 41.2258C171.565 41.2258 174.281 39.1699 174.281 36.1216C174.281 34.4891 173.505 33.149 172.269 32.242H174.447V30.2991H169.793V29.202C169.793 28.6631 169.623 28.3683 168.877 28.3683H166.449C166.449 28.3683 166.725 28.5332 166.725 29.5894ZM165.281 36.1216C165.281 34.1679 166.593 32.9325 168.208 32.9325C169.822 32.9325 171.153 34.1679 171.153 36.1216C171.153 38.0752 169.836 39.3155 168.208 39.3155C166.58 39.3155 165.281 38.08 165.281 36.1264V36.1216Z" fill="#0067AC"/>
<path d="M174.906 41.9849C170.756 41.9849 167.39 44.2297 167.39 47.5547C167.39 50.8798 170.758 53.1282 174.906 53.1282C179.054 53.1282 182.427 50.8834 182.427 47.5547C182.427 44.2261 179.059 41.9849 174.906 41.9849ZM174.906 51.1938C172.678 51.1938 170.876 49.7851 170.876 47.562C170.876 45.3388 172.68 43.9289 174.906 43.9289C177.131 43.9289 178.946 45.3304 178.946 47.562C178.946 49.7935 177.141 51.1938 174.911 51.1938H174.906Z" fill="#0067AC"/>
<path d="M179.667 30.7334V33.5412H178.368V29.5833C178.368 29.0552 178.194 28.7773 177.422 28.7773H175.257C175.257 28.7773 175.547 29.036 175.547 30.7334V40.9082H178.372V35.5525H179.667V40.9082H182.488V29.5833C182.488 29.0552 182.314 28.7773 181.543 28.7773H179.377C179.377 28.7773 179.671 29.0612 179.671 30.7334H179.667Z" fill="#0067AC"/>
<path d="M131.932 52.5916H135.277V29.5918C135.277 29.0673 134.927 28.7822 134.134 28.7822H131.638C131.638 28.7822 131.928 29.0119 131.928 30.7611L131.937 52.5916H131.932Z" fill="#0067AC"/>
<path d="M131.936 42.4914C131.936 44.3295 129.107 44.2958 129.107 44.2958H120.901C120.131 44.3476 120.058 43.9686 120.04 43.5031V38.548H127.126C127.906 38.548 128.088 38.2605 128.088 37.7336V30.3268C128.088 29.7939 127.906 29.5148 127.126 29.5148H116.172V31.4853H124.593V36.5727H116.243C116.243 36.5727 116.541 36.9516 116.541 37.9814V44.7469C116.579 45.2775 116.831 46.1905 118.753 46.2615H128.364C128.364 46.2615 132.117 46.3746 132.117 45.186" fill="#0067AC"/>
</svg>
