<svg xmlns="http://www.w3.org/2000/svg" width="655" height="655" fill="none"><path fill="#D6EEFA" d="M169.919 233.676c-39.934.063-69.826 30.963-69.763 69.027s30.018 68.88 69.973 68.817c89.109-.126 133.873-69.111 133.873-69.111s-44.953-68.859-134.083-68.733M485.084 233.695C395.975 233.569 351 302.428 351 302.428s44.765 68.985 133.874 69.111c39.933.063 69.909-30.753 69.972-68.817s-29.829-68.963-69.762-69.027"/><path fill="#62BFED" d="M462.577 369.733s.021 0 .042-.021c0 0-.063-.147-.147-.357a119 119 0 0 0-4.538-13.171c-6.806-21.427-18.905-67.053-21.762-127.194-4.034-111.649-104.864-109.212-108.624-109.212s-104.612-2.458-108.645 109.191c-2.836 59.616-14.747 104.948-21.574 126.626-5.798 13.739-8.97 28.611-8.97 44.156 0 68.964 62.305 124.862 139.168 124.862 76.862 0 139.167-55.898 139.167-124.862 0-10.356-1.428-20.397-4.075-30.018"/><path fill="#FDD700" d="M370.85 518.396a152.5 152.5 0 0 1-34.408 5.924c-.189 6.344-1.176 35.459-1.176 35.459 0 .504.021 1.008.084 1.512v.378c0 17.856 14.788 32.518 33.232 34.093.777.084 1.554.169 2.352.169.169 0 .316-.021.484-.021 9.473-.232 17.099-7.122 17.099-15.608 0-4.664-2.311-8.844-5.966-11.722-4.852-4.117-10.797-11.133-11.722-16.784v-33.421zM284.172 528.518v23.296c-.925 5.651-6.869 12.646-11.722 16.784-3.655 2.878-5.966 7.058-5.966 11.722 0 8.486 7.605 15.377 17.1 15.608.168 0 .315.021.483.021.798 0 1.575-.063 2.352-.168 18.444-1.576 33.233-16.238 33.233-34.094v-.378c.063-.504.084-1.008.084-1.512l-1.177-35.459a152.3 152.3 0 0 1-34.408-5.924v10.125zM327.341 408.302h.168c48.546-.021 95.6-11.112 136.731-31.761a106 106 0 0 0-1.66-6.806s-.021-.063-.042-.084a115 115 0 0 0-4.747-13.718 492 492 0 0 1-1.954-6.365c-37.118 19.431-81.378 30.901-128.37 30.922h-.147c-45.058 0-89.907-11.05-128.181-31.006a299 299 0 0 1-1.974 6.449 115 115 0 0 0-4.748 13.718c0 .042-.042.105-.042.105a120 120 0 0 0-1.617 6.701c41.214 20.565 88.836 31.866 136.541 31.866"/><path fill="#FDD700" d="M334.212 463.021c43 0 87.26-9.831 126.5-27.14 3.634-10.755 5.651-22.141 5.882-33.904-41.551 21.762-91.861 34.303-138.747 33.127-50.395-1.282-99.697-12.898-139.441-32.413.294 11.532 2.311 22.687 5.882 33.253 39.534 16.385 85.181 25.796 132.844 26.993 2.353.063 4.706.084 7.059.084M444.686 467.056c-36.656 15.335-77.913 23.8-116.837 22.813-41.509-1.05-82.261-9.117-117.552-22.834 24.745 34.619 67.956 57.558 117.194 57.558s92.45-22.939 117.174-57.558"/><path fill="#4D98D3" d="M492.664 369.104c-1.576-1.554-1.891-4.369-.778-6.827a224 224 0 0 0 5.336-12.709c3.382-7.562 5.777-14.977 5.777-14.977 1.743-5.084 3.298-9.894 2.688-15.314-.756-6.785-3.97-12.73-8.675-17.204a18 18 0 0 0-2.206-2.185c-1.68-1.575-5.167-4.306-8.738-6.827-.988-.609-7.962-5.777-18.213-10.608-12.247-5.777-24.346-9.39-27.917-10.398a527 527 0 0 0 6.301 38.294c3.719 1.513 7.122 3.088 10.083 4.622 4.706 2.668 8.613 6.05 9.895 10.398.105.336.273.651.336 1.008.315 1.891.294 2.941-.273 5.315l-5.357 15.839c-.105.189-.21.378-.294.567a40.8 40.8 0 0 0-2.689 8.066v.042c-1.723 7.668-1.218 15.587 1.365 22.771a39.1 39.1 0 0 0 9.243 14.6l.42.42a17.1 17.1 0 0 0 11.89 4.789h.084c4.495 0 8.97-1.764 12.352-5.251 6.029-6.26 6.323-15.923 1.05-22.54a16 16 0 0 0-1.512-1.681l-.147-.147zM195.763 378.828a41.4 41.4 0 0 0 2.163-9.579c.21-2.017.252-4.054.147-6.092a44 44 0 0 0-.966-6.974c-.609-2.752-1.491-5.483-2.71-8.109-.042-.084-.063-.147-.105-.231l-5.482-16.175c-.547-2.373-.589-3.445-.273-5.314.063-.357.231-.672.336-1.009 1.281-4.348 5.188-7.73 9.894-10.398 2.962-1.554 6.386-3.109 10.083-4.621a526 526 0 0 0 6.281-38.295c-3.571 1.009-15.671 4.622-27.897 10.398-10.272 4.853-17.225 9.999-18.212 10.609-3.572 2.52-7.08 5.251-8.739 6.827a20 20 0 0 0-2.206 2.184c-4.726 4.475-7.919 10.42-8.675 17.205-.61 5.419.924 10.23 2.688 15.313 0 0 2.395 7.415 5.777 14.978a225 225 0 0 0 5.336 12.688c.42.924.63 1.89.672 2.835 0 .316 0 .631-.042.925-.147 1.197-.609 2.289-1.407 3.067l-.147.147a16 16 0 0 0-1.513 1.68c-5.273 6.617-4.978 16.28 1.05 22.54a16.94 16.94 0 0 0 8.991 4.916 16.4 16.4 0 0 0 3.361.336c4.285 0 8.571-1.597 11.89-4.79l.441-.42a35 35 0 0 0 2.248-2.437 38.9 38.9 0 0 0 7.037-12.267"/><path fill="#281E1E" d="M272.219 220.567c0 5.63 4.558 10.188 10.188 10.188s10.188-4.558 10.188-10.188-4.558-10.188-10.188-10.188a10.184 10.184 0 0 0-10.188 10.188M362.484 220.567c0 5.63 4.559 10.188 10.188 10.188s10.189-4.558 10.189-10.188-4.559-10.188-10.189-10.188a10.184 10.184 0 0 0-10.188 10.188M327.532 262.852c-14.536 0-27.812-4.852-36.425-13.318a5.37 5.37 0 0 1-.063-7.583 5.35 5.35 0 0 1 7.583-.063c6.533 6.428 17.331 10.251 28.905 10.251s22.372-3.844 28.905-10.251c2.101-2.08 5.504-2.038 7.562.063 2.08 2.101 2.038 5.504-.063 7.583-8.612 8.466-21.888 13.318-36.404 13.318"/><path fill="#4D98D3" d="M299.636 90.875c5.545-4.034 8.318-11.197 6.449-18.213-2.437-9.096-11.806-14.515-20.923-12.079-9.096 2.437-14.515 11.806-12.079 20.902 1.828 6.806 7.521 11.532 14.075 12.478l8.549 34.387a6.43 6.43 0 0 0 7.794 4.685c3.445-.862 5.545-4.349 4.684-7.794l-8.549-34.408zM369.922 60.6c-9.117-2.436-18.465 2.962-20.902 12.08-1.89 7.015.904 14.157 6.449 18.212L346.92 125.3c-.862 3.445 1.239 6.932 4.684 7.794.525.126 1.05.189 1.555.189a6.45 6.45 0 0 0 6.238-4.874l8.55-34.387c6.554-.946 12.247-5.672 14.074-12.478 2.437-9.096-2.962-18.465-12.078-20.901"/></svg>